<svg id="Layer_1" data-name="Layer 1" xmlns="http://www.w3.org/2000/svg" xmlns:xlink="http://www.w3.org/1999/xlink" viewBox="0 0 1022 461"><defs><style>.cls-1{fill:url(#linear-gradient);}</style><linearGradient id="linear-gradient" x1="7843" y1="3168.98" x2="7843" y2="3611.48" gradientUnits="userSpaceOnUse"><stop offset="0" stop-color="#459b86"/><stop offset="0.13" stop-color="#469c87" stop-opacity="0.96"/><stop offset="0.3" stop-color="#47a08b" stop-opacity="0.85"/><stop offset="0.5" stop-color="#49a791" stop-opacity="0.66"/><stop offset="0.72" stop-color="#4db09a" stop-opacity="0.41"/><stop offset="0.95" stop-color="#51bca5" stop-opacity="0.08"/><stop offset="1" stop-color="#52bfa8" stop-opacity="0"/></linearGradient></defs><title>cloud2</title><path class="cls-1" d="M7332,3299.32h2.47a132.65,132.65,0,0,1,162.06-15c15.19-61.06,70.37-106.43,136.13-106.43a140.28,140.28,0,0,1,131.5,91.25,47.73,47.73,0,0,1,71.55-34.18,90.46,90.46,0,0,1,167.77-31.33,147.49,147.49,0,0,1,213,.28,101.76,101.76,0,0,1,73.8-8,63.27,63.27,0,0,1,43.81-17.55,62.13,62.13,0,0,1,19.95,3.22v437.79H7332v-320Z" transform="translate(-7332 -3158.32)"/></svg>