<svg id="Layer_1" data-name="Layer 1" xmlns="http://www.w3.org/2000/svg" xmlns:xlink="http://www.w3.org/1999/xlink" viewBox="0 0 1022 539.8"><defs><style>.cls-1{opacity:0.9;fill:url(#linear-gradient);}</style><linearGradient id="linear-gradient" x1="7843" y1="3100.32" x2="7843" y2="3586.39" gradientTransform="matrix(-1, 0, 0, 1, 15686, 0)" gradientUnits="userSpaceOnUse"><stop offset="0" stop-color="#ee3e23"/><stop offset="0.1" stop-color="#ee3e23" stop-opacity="0.97"/><stop offset="0.23" stop-color="#ee3e23" stop-opacity="0.9"/><stop offset="0.38" stop-color="#ee3e23" stop-opacity="0.78"/><stop offset="0.54" stop-color="#ee3e23" stop-opacity="0.61"/><stop offset="0.72" stop-color="#ee3e23" stop-opacity="0.4"/><stop offset="0.91" stop-color="#ee3e23" stop-opacity="0.14"/><stop offset="1" stop-color="#ee3e23" stop-opacity="0"/></linearGradient></defs><title>cloud3</title><path class="cls-1" d="M7394.08,3108.34a119,119,0,0,1,111.33,77,51.07,51.07,0,0,1,79.4-1.64,81.16,81.16,0,0,1,153.85,28.3,56.76,56.76,0,0,1,52.49-14.08,132.42,132.42,0,0,1,247.78-47.24,93.14,93.14,0,0,1,138.52,63.49,163.11,163.11,0,0,1,70.36-15.85c40.49,0,77.18,14.7,106.18,39v384H7332V3125.83A118.28,118.28,0,0,1,7394.08,3108.34Z" transform="translate(-7332 -3081.52)"/></svg>