<svg id="Layer_1" data-name="Layer 1" xmlns="http://www.w3.org/2000/svg" xmlns:xlink="http://www.w3.org/1999/xlink" viewBox="0 0 1022 539.8"><defs><style>.cls-1{opacity:0.9;fill:url(#linear-gradient);}</style><linearGradient id="linear-gradient" x1="7843" y1="3097.32" x2="7843" y2="3609.46" gradientUnits="userSpaceOnUse"><stop offset="0" stop-color="#ee3e23"/><stop offset="0.1" stop-color="#ee3e23" stop-opacity="0.97"/><stop offset="0.23" stop-color="#ee3e23" stop-opacity="0.9"/><stop offset="0.38" stop-color="#ee3e23" stop-opacity="0.78"/><stop offset="0.54" stop-color="#ee3e23" stop-opacity="0.61"/><stop offset="0.72" stop-color="#ee3e23" stop-opacity="0.4"/><stop offset="0.91" stop-color="#ee3e23" stop-opacity="0.14"/><stop offset="1" stop-color="#ee3e23" stop-opacity="0"/></linearGradient></defs><title>cloud4</title><path class="cls-1" d="M8291.92,3105.34a119,119,0,0,0-111.33,77,51.07,51.07,0,0,0-79.4-1.64,81.16,81.16,0,0,0-153.85,28.3,56.76,56.76,0,0,0-52.49-14.08,132.42,132.42,0,0,0-247.78-47.24,93.14,93.14,0,0,0-138.52,63.49,164,164,0,0,0-176.54,23.2v384H8354V3122.83A118.28,118.28,0,0,0,8291.92,3105.34Z" transform="translate(-7332 -3078.52)"/></svg>