<svg id="Layer_1" data-name="Layer 1" xmlns="http://www.w3.org/2000/svg" xmlns:xlink="http://www.w3.org/1999/xlink" viewBox="0 0 1022 460.5"><defs><style>.cls-1{fill:url(#linear-gradient);}</style><linearGradient id="linear-gradient" x1="7843" y1="3095.32" x2="7843" y2="3603.42" gradientUnits="userSpaceOnUse"><stop offset="0" stop-color="#52bfa8"/><stop offset="0.11" stop-color="#52bfa8" stop-opacity="0.97"/><stop offset="0.26" stop-color="#52bfa8" stop-opacity="0.88"/><stop offset="0.44" stop-color="#52bfa8" stop-opacity="0.73"/><stop offset="0.63" stop-color="#52bfa8" stop-opacity="0.52"/><stop offset="0.83" stop-color="#52bfa8" stop-opacity="0.25"/><stop offset="1" stop-color="#52bfa8" stop-opacity="0"/></linearGradient></defs><title>cloud2</title><path class="cls-1" d="M8354,3292.32h-2.47a132.76,132.76,0,0,0-162.06-14.64,140.32,140.32,0,0,0-267.63-15.09,47.72,47.72,0,0,0-71.55-34.15,90.46,90.46,0,0,0-167.77-31.32,147.49,147.49,0,0,0-213,.28,101.76,101.76,0,0,0-73.8-8A63.45,63.45,0,0,0,7332,3175v437.28H8354v-320Z" transform="translate(-7332 -3151.82)"/></svg>