<svg id="Layer_1" data-name="Layer 1" xmlns="http://www.w3.org/2000/svg" viewBox="0 0 962.32 584.27"><defs><style>.cls-1{fill:#f2f2dc;}.cls-2{fill:#18d9b5;}</style></defs><title>stars</title><rect class="cls-1" x="5748.02" y="2478.82" width="3.21" height="3.21" rx="1.14" ry="1.14" transform="translate(-4868.36 2407.3) rotate(-45)"/><rect class="cls-1" x="5757.38" y="2414.98" width="3.21" height="3.21" rx="1.14" ry="1.14" transform="translate(-4820.48 2395.22) rotate(-45)"/><rect class="cls-2" x="5688.14" y="2576.02" width="3.21" height="3.21" rx="1.14" ry="1.14" transform="translate(-4954.63 2393.43) rotate(-45)"/><rect class="cls-1" x="5737.81" y="2613.43" width="3.21" height="3.21" rx="1.14" ry="1.14" transform="translate(-4966.53 2439.51) rotate(-45)"/><rect class="cls-2" x="5714.82" y="2411.37" width="3.21" height="3.21" rx="1.14" ry="1.14" transform="translate(-4830.39 2364.07) rotate(-45)"/><rect class="cls-1" x="5638.81" y="2436.83" width="3.21" height="3.21" rx="1.14" ry="1.14" transform="translate(-4870.66 2317.78) rotate(-45)"/><rect class="cls-2" x="5689.94" y="2480.62" width="3.21" height="3.21" rx="1.14" ry="1.14" transform="translate(-4886.65 2366.76) rotate(-45)"/><rect class="cls-2" x="5431.26" y="2413.18" width="3.21" height="3.21" rx="1.14" ry="1.14" transform="translate(-4914.72 2164.09) rotate(-45)"/><rect class="cls-1" x="5394.64" y="2507.64" width="3.21" height="3.21" rx="1.14" ry="1.14" transform="translate(-4992.24 2165.87) rotate(-45)"/><rect class="cls-1" x="5569.75" y="2388.93" width="4.82" height="4.82" rx="1.14" ry="1.14" transform="translate(-4857.34 2255.72) rotate(-45)"/><rect class="cls-1" x="5349.76" y="2399.79" width="4.82" height="4.82" rx="1.14" ry="1.14" transform="translate(-4929.46 2103.35) rotate(-45)"/><rect class="cls-1" x="5261.52" y="2442.57" width="4.82" height="4.82" rx="1.14" ry="1.14" transform="translate(-4985.55 2053.48) rotate(-45)"/><rect class="cls-2" x="5485.62" y="2469.79" width="3.21" height="3.21" rx="1.14" ry="1.14" transform="translate(-4938.83 2219.11) rotate(-45)"/><rect class="cls-2" x="5624.56" y="2507.64" width="3.21" height="3.21" rx="1.14" ry="1.14" transform="translate(-4924.9 2328.44) rotate(-45)"/><rect class="cls-2" x="5602.92" y="2654.4" width="3.21" height="3.21" rx="1.14" ry="1.14" transform="translate(-5035.01 2356.13) rotate(-45)"/><rect class="cls-2" x="5217.89" y="2659.8" width="3.21" height="3.21" rx="1.14" ry="1.14" transform="translate(-5151.6 2085.45) rotate(-45)"/><rect class="cls-2" x="5503.54" y="2552.72" width="3.21" height="3.21" rx="1.14" ry="1.14" transform="translate(-4992.22 2256.07) rotate(-45)"/><rect class="cls-2" x="5529.85" y="2435.03" width="3.21" height="3.21" rx="1.14" ry="1.14" transform="translate(-4901.3 2240.21) rotate(-45)"/><rect class="cls-1" x="5296.89" y="2508.64" width="4.82" height="4.82" rx="1.14" ry="1.14" transform="translate(-5021.91 2097.84) rotate(-45)"/><rect class="cls-2" x="5079.92" y="2481.31" width="3.21" height="3.21" rx="1.14" ry="1.14" transform="translate(-5065.81 1935.62) rotate(-45)"/><rect class="cls-2" x="5007.2" y="2441.57" width="3.21" height="3.21" rx="1.14" ry="1.14" transform="translate(-5059 1872.55) rotate(-45)"/><rect class="cls-2" x="5227.48" y="2567.04" width="3.21" height="3.21" rx="1.14" ry="1.14" transform="translate(-5083.2 2065.06) rotate(-45)"/><rect class="cls-2" x="5156.26" y="2411.37" width="3.21" height="3.21" rx="1.14" ry="1.14" transform="translate(-4993.99 1969.11) rotate(-45)"/><rect class="cls-2" x="5018.65" y="2642.21" width="3.21" height="3.21" rx="1.14" ry="1.14" transform="translate(-5197.53 1939.42) rotate(-45)"/><rect class="cls-1" x="5142.87" y="2603.59" width="3.21" height="3.21" rx="1.14" ry="1.14" transform="translate(-5133.83 2015.94) rotate(-45)"/><rect class="cls-1" x="5078.12" y="2405.33" width="3.21" height="3.21" rx="1.14" ry="1.14" transform="translate(-5012.6 1912.09) rotate(-45)"/><rect class="cls-1" x="4837.86" y="2388.93" width="4.82" height="4.82" rx="1.14" ry="1.14" transform="translate(-5071.71 1738.2) rotate(-45)"/><rect class="cls-2" x="5179.11" y="2505.03" width="4.82" height="4.82" rx="1.14" ry="1.14" transform="translate(-5053.86 2013.5) rotate(-45)"/><rect class="cls-1" x="5664.91" y="2763.72" width="3.21" height="3.21" rx="1.14" ry="1.14" transform="translate(-5094.16 2431.98) rotate(-45)"/><rect class="cls-1" x="5736.01" y="2697.43" width="3.21" height="3.21" rx="1.14" ry="1.14" transform="translate(-5026.46 2462.84) rotate(-45)"/><rect class="cls-1" x="5595.25" y="2933.2" width="3.21" height="3.21" rx="1.14" ry="1.14" transform="translate(-5234.4 2432.36) rotate(-45)"/><rect class="cls-1" x="5483.81" y="2919.59" width="3.21" height="3.21" rx="1.14" ry="1.14" transform="translate(-5257.42 2349.58) rotate(-45)"/><rect class="cls-1" x="5754.99" y="2826.62" width="3.21" height="3.21" rx="1.14" ry="1.14" transform="translate(-5112.25 2514.1) rotate(-45)"/><rect class="cls-1" x="5573.76" y="2713.22" width="4.82" height="4.82" rx="1.14" ry="1.14" transform="translate(-5085.48 2353.54) rotate(-45)"/><rect class="cls-2" x="5705.56" y="2861.92" width="4.82" height="4.82" rx="1.14" ry="1.14" transform="translate(-5152.02 2490.29) rotate(-45)"/><rect class="cls-2" x="5299.5" y="2716.96" width="3.21" height="3.21" rx="1.14" ry="1.14" transform="translate(-5168.12 2159.9) rotate(-45)"/><rect class="cls-2" x="5314.52" y="2615.23" width="3.21" height="3.21" rx="1.14" ry="1.14" transform="translate(-5091.79 2140.72) rotate(-45)"/><rect class="cls-2" x="5081.72" y="2701.03" width="3.21" height="3.21" rx="1.14" ry="1.14" transform="translate(-5220.64 2001.24) rotate(-45)"/><rect class="cls-2" x="5501.74" y="2748.57" width="3.21" height="3.21" rx="1.14" ry="1.14" transform="translate(-5131.23 2312.16) rotate(-45)"/><rect class="cls-2" x="5421.73" y="2656.2" width="3.21" height="3.21" rx="1.14" ry="1.14" transform="translate(-5089.35 2228.54) rotate(-45)"/><rect class="cls-1" x="5383.22" y="2907.13" width="4.82" height="4.82" rx="1.14" ry="1.14" transform="translate(-5278.4 2275.61) rotate(-45)"/><rect class="cls-1" x="5389.1" y="2762.92" width="4.82" height="4.82" rx="1.14" ry="1.14" transform="translate(-5174.71 2237.52) rotate(-45)"/><rect class="cls-1" x="5170.14" y="2781.6" width="4.82" height="4.82" rx="1.14" ry="1.14" transform="translate(-5252.05 2088.16) rotate(-45)"/><rect class="cls-1" x="5599.18" y="2802.79" width="4.82" height="4.82" rx="1.14" ry="1.14" transform="translate(-5141.37 2397.75) rotate(-45)"/><rect class="cls-1" x="5472.67" y="2832.02" width="3.21" height="3.21" rx="1.14" ry="1.14" transform="translate(-5477.98 806.53) rotate(-30.69)"/><rect class="cls-1" x="5703.42" y="2948.78" width="3.21" height="3.21" rx="1.14" ry="1.14" transform="translate(-5505.25 940.67) rotate(-30.69)"/><rect class="cls-1" x="5290.29" y="2830.22" width="3.21" height="3.21" rx="1.14" ry="1.14" transform="translate(-5250.9 2186.56) rotate(-45)"/><rect class="cls-1" x="5042.09" y="2765.52" width="3.21" height="3.21" rx="1.14" ry="1.14" transform="translate(-5277.85 1992.11) rotate(-45)"/><rect class="cls-1" x="5182.85" y="2884.53" width="3.21" height="3.21" rx="1.14" ry="1.14" transform="translate(-5320.78 2126.5) rotate(-45)"/><rect class="cls-1" x="5240.58" y="2965.66" width="3.21" height="3.21" rx="1.14" ry="1.14" transform="translate(-5361.23 2191.08) rotate(-45)"/><rect class="cls-1" x="4956.96" y="2695.63" width="3.21" height="3.21" rx="1.14" ry="1.14" transform="translate(-5253.36 1911.44) rotate(-45)"/><rect class="cls-1" x="4955.16" y="2947" width="3.21" height="3.21" rx="1.14" ry="1.14" transform="translate(-5431.64 1983.79) rotate(-45)"/><rect class="cls-2" x="4955.16" y="2862.73" width="3.21" height="3.21" rx="1.14" ry="1.14" transform="translate(-5372.05 1959.11) rotate(-45)"/><rect class="cls-2" x="5156.26" y="2699.23" width="3.21" height="3.21" rx="1.14" ry="1.14" transform="translate(-5197.54 2053.42) rotate(-45)"/><rect class="cls-2" x="5090.1" y="2847.93" width="3.21" height="3.21" rx="1.14" ry="1.14" transform="translate(-5322.06 2050.2) rotate(-45)"/><rect class="cls-1" x="5020.78" y="2551.92" width="4.82" height="4.82" rx="1.14" ry="1.14" transform="translate(-5133.38 1915.28) rotate(-45)"/><rect class="cls-1" x="4800.46" y="2567.04" width="3.21" height="3.21" rx="1.14" ry="1.14" transform="translate(-5208.27 1763.11) rotate(-45)"/><rect class="cls-2" x="4798.66" y="2467.99" width="3.21" height="3.21" rx="1.14" ry="1.14" transform="translate(-5138.77 1732.83) rotate(-45)"/><rect class="cls-1" x="4925.1" y="2573.95" width="3.21" height="3.21" rx="1.14" ry="1.14" transform="translate(-5176.66 1853.28) rotate(-45)"/><rect class="cls-2" x="4855.72" y="2844.32" width="3.21" height="3.21" rx="1.14" ry="1.14" transform="translate(-5388.16 1883.41) rotate(-45)"/><rect class="cls-2" x="4887.28" y="2534.83" width="3.21" height="3.21" rx="1.14" ry="1.14" transform="translate(-5160.07 1815.08) rotate(-45)"/><rect class="cls-2" x="4955.16" y="2490.23" width="3.21" height="3.21" rx="1.14" ry="1.14" transform="translate(-5108.65 1850.01) rotate(-45)"/><rect class="cls-2" x="4897.81" y="2750.37" width="3.21" height="3.21" rx="1.14" ry="1.14" transform="translate(-5309.39 1885.65) rotate(-45)"/><rect class="cls-2" x="4969.31" y="2384.99" width="3.21" height="3.21" rx="1.14" ry="1.14" transform="translate(-5030.09 1829.19) rotate(-45)"/><rect class="cls-1" x="4824.37" y="2688.95" width="4.82" height="4.82" rx="1.14" ry="1.14" transform="translate(-5287.81 1816.53) rotate(-45)"/><rect class="cls-1" x="4857.85" y="2930.6" width="4.82" height="4.82" rx="1.14" ry="1.14" transform="translate(-5448.87 1910.99) rotate(-45)"/><rect class="cls-1" x="4908.68" y="2438.96" width="4.82" height="4.82" rx="1.14" ry="1.14" transform="translate(-5086.35 1802.93) rotate(-45)"/></svg>