<svg xmlns="http://www.w3.org/2000/svg" viewBox="0 0 30.96 458.57"><defs><style>.cls-1{fill:#f2f1dc;}.cls-2{fill:#ee3e23;}</style></defs><title>Asset 2</title><g id="Layer_2" data-name="Layer 2"><g id="Layer_1-2" data-name="Layer 1"><path class="cls-1" d="M19,340.71v-54a15.46,15.46,0,0,0,0-30.13v-58.3H12v58.32a15.44,15.44,0,0,0-12,15,15.7,15.7,0,0,0,.24,2.72A15.47,15.47,0,0,0,12,286.77v53.94A14.34,14.34,0,0,0,.17,354.8v89.44A14.35,14.35,0,0,0,14.5,458.57h2a14.35,14.35,0,0,0,14.33-14.33V354.8A14.34,14.34,0,0,0,19,340.71ZM7.15,273.17a8.47,8.47,0,1,1,3.49,5.47A8.41,8.41,0,0,1,7.15,273.17ZM23.78,444.24a7.34,7.34,0,0,1-7.33,7.33h-2a7.34,7.34,0,0,1-7.33-7.33V354.8a7.34,7.34,0,0,1,7.33-7.33h2a7.34,7.34,0,0,1,7.33,7.33Z"/><path class="cls-1" d="M0,100.88a15.49,15.49,0,0,0,12,15.06v57.87h7V115.94a15.45,15.45,0,0,0,0-30.11V30.53a15.47,15.47,0,1,0-7,0v55.3A15.49,15.49,0,0,0,0,100.88Zm23.94,0a8.47,8.47,0,1,1-8.47-8.47A8.48,8.48,0,0,1,23.94,100.88ZM7,15.47a8.47,8.47,0,1,1,8.47,8.47A8.48,8.48,0,0,1,7,15.47Z"/><path class="cls-2" d="M0,186.27a15.47,15.47,0,0,1,24.33-12.65h0A15.47,15.47,0,1,1,0,186.27Zm23.94,0a8.58,8.58,0,0,0-.13-1.49,8.41,8.41,0,0,0-3.48-5.47h0a8.46,8.46,0,1,0,3.62,7Z"/></g></g></svg>