<svg xmlns="http://www.w3.org/2000/svg" viewBox="0 0 30.96 458.57"><defs><style>.cls-1{fill:#f2f1dc;}</style></defs><title>Asset 1</title><g id="Layer_2" data-name="Layer 2"><g id="Layer_1-2" data-name="Layer 1"><path class="cls-1" d="M30.78,444.24V354.8A14.34,14.34,0,0,0,19,340.71v-54a15.46,15.46,0,0,0,0-30.13V201.33a15.46,15.46,0,0,0,0-30.12V115.94a15.45,15.45,0,0,0,0-30.11V30.53a15.47,15.47,0,1,0-7,0v55.3a15.45,15.45,0,0,0,0,30.11v55.3a15.45,15.45,0,0,0,0,30.11v55.31a15.44,15.44,0,0,0-12,15,15.7,15.7,0,0,0,.24,2.72A15.47,15.47,0,0,0,12,286.77v53.94A14.34,14.34,0,0,0,.17,354.8v89.44A14.35,14.35,0,0,0,14.5,458.57h2A14.35,14.35,0,0,0,30.78,444.24ZM7,15.47a8.47,8.47,0,1,1,8.47,8.47A8.48,8.48,0,0,1,7,15.47Zm0,85.41a8.47,8.47,0,1,1,8.47,8.47A8.48,8.48,0,0,1,7,100.88Zm3.62,92.35a8.47,8.47,0,1,1,13.2-8.41,8.58,8.58,0,0,1,.13,1.49,8.47,8.47,0,0,1-13.33,6.92Zm0,85.41A8.47,8.47,0,1,1,17,280,8.41,8.41,0,0,1,10.63,278.64ZM14.5,451.57a7.34,7.34,0,0,1-7.33-7.33V354.8a7.34,7.34,0,0,1,7.33-7.33h2a7.34,7.34,0,0,1,7.33,7.33v89.44a7.34,7.34,0,0,1-7.33,7.33Z"/></g></g></svg>