<svg xmlns="http://www.w3.org/2000/svg" viewBox="0 0 30.96 458.57"><defs><style>.cls-1{fill:#f2f1dc;}.cls-2{fill:#ee3e23;}</style></defs><title>Asset 3</title><g id="Layer_2" data-name="Layer 2"><g id="Layer_1-2" data-name="Layer 1"><rect class="cls-1" x="11.97" y="113.37" width="7" height="60.44"/><rect class="cls-1" x="11.97" y="198.33" width="7" height="61.36"/><rect class="cls-1" x="11.97" y="283.02" width="7" height="61.36"/><path class="cls-1" d="M0,186.27a15.47,15.47,0,0,1,24.33-12.65h0A15.47,15.47,0,1,1,0,186.27Zm23.94,0a8.58,8.58,0,0,0-.13-1.49,8.41,8.41,0,0,0-3.48-5.47h0a8.46,8.46,0,1,0,3.62,7Z"/><path class="cls-1" d="M0,271.67A15.47,15.47,0,0,1,24.35,259,15.47,15.47,0,1,1,6.62,284.38a15.36,15.36,0,0,1-6.37-10A15.7,15.7,0,0,1,0,271.67Zm23.94,0a8.46,8.46,0,0,0-3.61-7h0a8.48,8.48,0,1,0,3.61,7Z"/><path class="cls-2" d="M.17,444.24V354.8A14.35,14.35,0,0,1,14.5,340.47h2A14.35,14.35,0,0,1,30.78,354.8v89.44a14.35,14.35,0,0,1-14.33,14.33h-2A14.35,14.35,0,0,1,.17,444.24ZM23.78,354.8a7.34,7.34,0,0,0-7.33-7.33h-2a7.34,7.34,0,0,0-7.33,7.33v89.44a7.34,7.34,0,0,0,7.33,7.33h2a7.34,7.34,0,0,0,7.33-7.33Z"/><rect class="cls-1" x="11.97" y="27.96" width="7" height="60.44"/><path class="cls-1" d="M0,15.47A15.47,15.47,0,1,1,15.47,30.94,15.49,15.49,0,0,1,0,15.47Zm23.94,0a8.47,8.47,0,1,0-8.47,8.47A8.48,8.48,0,0,0,23.94,15.47Z"/><path class="cls-1" d="M0,100.88a15.47,15.47,0,1,1,15.47,15.47A15.49,15.49,0,0,1,0,100.88Zm23.94,0a8.47,8.47,0,1,0-8.47,8.47A8.48,8.48,0,0,0,23.94,100.88Z"/></g></g></svg>